<?xml version="1.0" standalone="no"?>
<!DOCTYPE svg PUBLIC "-//W3C//DTD SVG 20010904//EN"
 "http://www.w3.org/TR/2001/REC-SVG-20010904/DTD/svg10.dtd">
<svg version="1.0" xmlns="http://www.w3.org/2000/svg"
 width="1024.000000pt" height="1024.000000pt" viewBox="0 0 1024.000000 1024.000000"
 preserveAspectRatio="xMidYMid meet">
<metadata>
Created by potrace 1.11, written by Peter Selinger 2001-2013
</metadata>
<g transform="translate(0.000000,1024.000000) scale(0.100000,-0.100000)"
fill="#000000" stroke="none">
<path d="M616 10193 c-186 -39 -361 -157 -465 -313 -50 -75 -76 -133 -100
-226 -21 -79 -21 -83 -21 -4529 0 -4689 -1 -4497 41 -4600 7 -17 13 -32 13
-35 4 -20 46 -95 82 -146 106 -150 273 -258 460 -299 60 -12 624 -14 4514 -12
2445 1 4456 5 4469 9 13 4 49 15 80 24 256 74 468 315 512 583 12 72 16 8866
4 8931 -22 124 -55 210 -116 300 -111 166 -282 276 -487 316 -114 22 -8884 19
-8986 -3z"/>
</g>
</svg>
